<?xml version="1.0" encoding="UTF-8"?>
<svg viewBox="0 0 640 480" xmlns="http://www.w3.org/2000/svg">
 <path d="m445.33 87.046c-37.568 0.25236-73.77 12.049-110.64 16.766-15.39 1.9689-31.252 2.4513-46.667 0.62077-20.497-2.4342-40.341-8.9001-60.825-11.799-18.306-2.5887-36.84-5.2934-55.26-5.401-32.191-0.19167-65.325 6.933-97.882 4.3999 0 9.2728 3.1241 41.176 7.8425 47.694 4.8671 6.7225 10.077 6.871 12.206 15.981 5.0496 21.606 13.219 39.785 22.387 60.088 4.4547 9.867 12.863 16.746 22.252 21.485 22.61 11.411 49.371 13.089 74.175 9.5006 35.323-5.1102 54.487-31.735 69.108-62.157 5.4721-12.366 6.0828-26.638 13.29-37.941 4.2801-6.7118 14.22-3.8867 21.324-3.9112 7.1046-0.024475 13.126 11.845 15.33 19.747 7.8031 27.961 20.812 57.627 46.669 72.277 38.611 21.879 99.44 17.786 124.49-21.671 9.804-15.443 12.511-34.179 17.43-51.661 2.9945-10.644 3.6703-14.334 14.319-20.186 4.297-2.3619 5.2811-19.785 5.9153-25.262-15.308 61.033 18.025-27.247 2.5714-24.418-14.743-2.0456-37.045 2.7356-52.134 0.63042-14.299-1.9955-31.309-4.8791-45.899-4.7822zm-248.36 9.9351c10.665-0.067093 21.283 0.71666 31.648 2.9188 61.758 13.122 63.006 38.683 37.582 91.529-20.717 43.06-63.631 53.849-106.87 43.527-19.935-4.7567-33.565-18.735-39.993-37.877-6.7857-20.204-11.918-41.668-10.756-62.903 1.557-28.434 33.573-32.43 56.497-35.021 10.519-1.1884 21.231-2.1052 31.895-2.1734zm225.49 0c10.665 0.068146 21.377 0.98498 31.896 2.1734 22.924 2.5908 54.941 6.5872 56.496 35.021 1.1615 21.235-3.9703 42.7-10.756 62.903-6.4286 19.142-20.059 33.12-39.992 37.877-43.241 10.322-86.157-0.46747-106.87-43.527-25.424-52.846-24.174-78.406 37.583-91.529 10.365-2.2021 20.984-2.9859 31.647-2.9188z" fill="#000059" stroke="#000" stroke-width="5"/>
</svg>
